<svg width="30" height="30" viewBox="0 0 30 30" fill="none" xmlns="http://www.w3.org/2000/svg">
<path d="M25.6406 12.1522L16.2656 3.6327C15.92 3.31649 15.4685 3.14111 15 3.14111C14.5315 3.14111 14.08 3.31649 13.7344 3.6327L4.3594 12.1522C4.16745 12.3278 4.01414 12.5415 3.90923 12.7795C3.80432 13.0176 3.7501 13.2749 3.75002 13.535V24.328C3.7424 24.8007 3.90929 25.2597 4.21877 25.6171C4.39442 25.8168 4.6108 25.9766 4.85336 26.0858C5.09592 26.1949 5.35904 26.2509 5.62502 26.2499H11.25C11.4987 26.2499 11.7371 26.1511 11.9129 25.9753C12.0887 25.7995 12.1875 25.561 12.1875 25.3124V19.6874C12.1875 19.4388 12.2863 19.2003 12.4621 19.0245C12.6379 18.8487 12.8764 18.7499 13.125 18.7499H16.875C17.1237 18.7499 17.3621 18.8487 17.5379 19.0245C17.7137 19.2003 17.8125 19.4388 17.8125 19.6874V25.3124C17.8125 25.561 17.9113 25.7995 18.0871 25.9753C18.2629 26.1511 18.5014 26.2499 18.75 26.2499H24.375C24.686 26.2526 24.9925 26.176 25.2656 26.0272C25.5628 25.8654 25.811 25.6266 25.9842 25.3359C26.1574 25.0452 26.2492 24.7133 26.25 24.3749V13.535C26.2499 13.2749 26.1957 13.0176 26.0908 12.7795C25.9859 12.5415 25.8326 12.3278 25.6406 12.1522Z" fill="#0D9DE8"/>
</svg>
