<svg width="24" height="24" viewBox="0 0 24 24" fill="none" xmlns="http://www.w3.org/2000/svg">
<path fill-rule="evenodd" clip-rule="evenodd" d="M9.84375 1.875C5.44273 1.875 1.875 5.44273 1.875 9.84375C1.875 14.2448 5.44273 17.8125 9.84375 17.8125C14.2448 17.8125 17.8125 14.2448 17.8125 9.84375C17.8125 5.44273 14.2448 1.875 9.84375 1.875ZM0 9.84375C0 4.4072 4.4072 0 9.84375 0C15.2803 0 19.6875 4.4072 19.6875 9.84375C19.6875 15.2803 15.2803 19.6875 9.84375 19.6875C4.4072 19.6875 0 15.2803 0 9.84375Z" fill="#0D9DE8"/>
<path fill-rule="evenodd" clip-rule="evenodd" d="M16.1408 16.1418C16.5069 15.7757 17.1005 15.7757 17.4666 16.1418L23.162 21.8372C23.5281 22.2033 23.5281 22.7969 23.162 23.163C22.7959 23.5291 22.2023 23.5291 21.8362 23.163L16.1408 17.4676C15.7747 17.1015 15.7747 16.5079 16.1408 16.1418Z" fill="#0D9DE8"/>
</svg>
