<svg width="25" height="25" viewBox="0 0 25 25" fill="none" xmlns="http://www.w3.org/2000/svg">
<path fill-rule="evenodd" clip-rule="evenodd" d="M10.5938 2.625C6.19273 2.625 2.625 6.19273 2.625 10.5938C2.625 14.9948 6.19273 18.5625 10.5938 18.5625C14.9948 18.5625 18.5625 14.9948 18.5625 10.5938C18.5625 6.19273 14.9948 2.625 10.5938 2.625ZM0.75 10.5938C0.75 5.1572 5.1572 0.75 10.5938 0.75C16.0303 0.75 20.4375 5.1572 20.4375 10.5938C20.4375 16.0303 16.0303 20.4375 10.5938 20.4375C5.1572 20.4375 0.75 16.0303 0.75 10.5938Z" fill="#CDD1DB"/>
<path fill-rule="evenodd" clip-rule="evenodd" d="M16.8908 16.8918C17.2569 16.5257 17.8505 16.5257 18.2166 16.8918L23.912 22.5872C24.2781 22.9533 24.2781 23.5469 23.912 23.913C23.5459 24.2791 22.9523 24.2791 22.5862 23.913L16.8908 18.2176C16.5247 17.8515 16.5247 17.2579 16.8908 16.8918Z" fill="#CDD1DB"/>
</svg>
