<svg width="24" height="24" viewBox="0 0 24 24" fill="none" xmlns="http://www.w3.org/2000/svg">
<g clip-path="url(#clip0_1_965)">
<path d="M4.5925 18.5625C4.24 18.5613 3.91125 18.4238 3.66375 18.1763C3.41625 17.9275 3.28125 17.5975 3.28125 17.2475C3.28125 17.0162 3.34375 16.7875 3.46125 16.5875C4.02875 15.6112 4.70625 13.7625 4.70625 10.5013V9.7525C4.70375 7.80125 5.46125 5.96625 6.8375 4.585C8.21625 3.2025 10.0487 2.44 11.9987 2.4375H12.0525C16.0462 2.4675 19.2938 5.785 19.2938 9.835V10.5C19.2938 13.7612 19.9713 15.6113 20.5387 16.5888C20.715 16.89 20.7638 17.2425 20.675 17.5825C20.5862 17.9213 20.3713 18.2063 20.0688 18.3838C19.8687 18.5013 19.64 18.5637 19.4088 18.5637H4.5925V18.5625ZM12 3.5625C8.59375 3.5675 5.82625 6.3425 5.83125 9.74875C5.83125 9.74875 5.83125 9.74875 5.83125 9.75V10.5C5.83125 14.0112 5.07125 16.0562 4.43375 17.1537C4.41625 17.1837 4.4075 17.2163 4.4075 17.25C4.4075 17.3175 4.44125 17.3625 4.4625 17.3825C4.4825 17.4025 4.5275 17.4375 4.595 17.4375H19.4088C19.44 17.4375 19.4725 17.4287 19.5012 17.4112C19.56 17.3775 19.58 17.325 19.5875 17.2975C19.595 17.27 19.6025 17.2138 19.5675 17.155C18.9287 16.0563 18.1688 14.0112 18.1688 10.5V9.835C18.1688 6.40125 15.4225 3.5875 12.0463 3.5625H12Z" fill="#313131"/>
<path d="M12 22.3125C10.0362 22.3125 8.4375 20.7137 8.4375 18.75V18C8.4375 17.6887 8.68875 17.4375 9 17.4375C9.31125 17.4375 9.5625 17.6887 9.5625 18V18.75C9.5625 20.0938 10.6562 21.1875 12 21.1875C13.3438 21.1875 14.4375 20.0938 14.4375 18.75V18C14.4375 17.6887 14.6887 17.4375 15 17.4375C15.3113 17.4375 15.5625 17.6887 15.5625 18V18.75C15.5625 20.7137 13.9637 22.3125 12 22.3125Z" fill="#313131"/>
</g>
<defs>
<clipPath id="clip0_1_965">
<rect width="24" height="24" fill="white"/>
</clipPath>
</defs>
</svg>
