<svg width="26" height="23" viewBox="0 0 26 23" fill="none" xmlns="http://www.w3.org/2000/svg">
<g clip-path="url(#clip0_394_665)">
<path d="M22.3889 3H19.0516L17.4116 0.445312C17.3237 0.30833 17.2046 0.196011 17.0647 0.118327C16.925 0.0406434 16.7689 -1.85932e-06 16.6104 0H8.90669C8.74815 -1.74917e-06 8.59208 0.0406434 8.4523 0.118327C8.31254 0.196011 8.1934 0.30833 8.10547 0.445312L6.46542 3H3.12961C2.3637 3.00091 1.62941 3.31727 1.08782 3.87968C0.546244 4.4421 0.241599 5.20463 0.240723 6V20C0.241599 20.7954 0.546244 21.5579 1.08782 22.1203C1.62941 22.6827 2.3637 22.9991 3.12961 23H22.3889C23.1548 22.9991 23.8891 22.6827 24.4306 22.1203C24.9722 21.5579 25.2769 20.7954 25.2778 20V6C25.2769 5.20463 24.9722 4.4421 24.4306 3.87968C23.8891 3.31727 23.1548 3.00091 22.3889 3ZM17.0926 12.5C17.0926 13.39 16.8384 14.26 16.3623 15.0001C15.8861 15.7401 15.2093 16.3169 14.4176 16.6575C13.6257 16.9981 12.7544 17.0872 11.9139 16.9135C11.0733 16.7399 10.3012 16.3113 9.69509 15.682C9.08908 15.0526 8.67637 14.2508 8.50918 13.3779C8.34197 12.505 8.42779 11.6002 8.75576 10.7779C9.08375 9.95566 9.63914 9.25285 10.3517 8.75839C11.0644 8.26392 11.9022 8 12.7592 8C13.9082 8.00134 15.0096 8.47587 15.8219 9.3195C16.6343 10.1631 17.0913 11.3069 17.0926 12.5Z" fill="#53B9EE"/>
</g>
<defs>
<clipPath id="clip0_394_665">
<rect width="26" height="23" fill="white"/>
</clipPath>
</defs>
</svg>
