<svg width="26" height="23" viewBox="0 0 26 23" fill="none" xmlns="http://www.w3.org/2000/svg">
<path opacity="0.6" d="M25.7178 6.89372L18.4959 0.259433C18.4064 0.177189 18.3002 0.111943 18.1833 0.0674279C18.0664 0.0229126 17.9411 0 17.8146 0C17.6881 0 17.5628 0.0229126 17.4458 0.0674279C17.3289 0.111943 17.2227 0.177189 17.1332 0.259433L1.57847 14.5485C0.567793 15.477 0 16.7363 0 18.0492C0 19.3623 0.567793 20.6216 1.57847 21.55C2.58915 22.4784 3.95993 23 5.38924 23C6.81856 23 8.18933 22.4784 9.20001 21.55L22.6677 9.17813L25.3411 8.3599C25.4968 8.31229 25.6368 8.22886 25.7477 8.11754C25.8585 8.00622 25.9365 7.87072 25.9743 7.72389C26.0119 7.57709 26.0082 7.42384 25.9634 7.27873C25.9184 7.13361 25.8339 7.00036 25.7178 6.89372ZM21.8432 7.5649C21.7013 7.60818 21.5723 7.68125 21.4664 7.77829L16.7036 12.1537C15.6841 12.4743 14.0857 12.5958 12.0009 11.6007C10.725 10.9882 9.57194 10.7162 8.56328 10.6355L17.8146 2.13583L23.2538 7.13255L21.8432 7.5649Z" fill="#53B9EE"/>
</svg>
