<svg width="16" height="16" viewBox="0 0 16 16" fill="none" xmlns="http://www.w3.org/2000/svg">
<g clip-path="url(#clip0_11_35)">
<path fill-rule="evenodd" clip-rule="evenodd" d="M10.3452 2.74733C10.3121 2.74733 10.2805 2.76045 10.2571 2.78381L2.78381 10.2571C2.77224 10.2687 2.76307 10.2824 2.75681 10.2975C2.75055 10.3126 2.74733 10.3288 2.74733 10.3452V13.1281C2.74733 13.1612 2.76045 13.1928 2.78381 13.2162C2.80717 13.2395 2.83885 13.2527 2.87188 13.2527H5.65483C5.67119 13.2527 5.68738 13.2494 5.70249 13.2432C5.7176 13.2369 5.73133 13.2278 5.7429 13.2162L13.2162 5.7429C13.2395 5.71954 13.2527 5.68786 13.2527 5.65483C13.2527 5.62179 13.2395 5.59011 13.2162 5.56676L10.4332 2.78381C10.4099 2.76045 10.3782 2.74733 10.3452 2.74733ZM9.72866 2.25537C9.89217 2.09186 10.1139 2 10.3452 2C10.5764 2 10.7982 2.09186 10.9617 2.25537L13.7446 5.03831C13.9081 5.20182 14 5.42359 14 5.65483C14 5.88607 13.9081 6.10783 13.7446 6.27134L6.27134 13.7446C6.19038 13.8256 6.09427 13.8898 5.98849 13.9336C5.8827 13.9774 5.76933 14 5.65483 14H2.87188C2.64065 14 2.41888 13.9081 2.25537 13.7446C2.09186 13.5811 2 13.3594 2 13.1281V10.3452C2 10.2307 2.02255 10.1173 2.06637 10.0115C2.11018 9.90573 2.17441 9.80962 2.25537 9.72865L9.72866 2.25537Z" fill="#313131"/>
<path fill-rule="evenodd" clip-rule="evenodd" d="M8.08808 3.89606C8.23401 3.75014 8.4706 3.75014 8.61652 3.89606L12.1041 7.3836C12.25 7.52952 12.25 7.76611 12.1041 7.91204C11.9581 8.05796 11.7215 8.05796 11.5756 7.91204L8.08808 4.42451C7.94216 4.27858 7.94216 4.04199 8.08808 3.89606Z" fill="#313131"/>
<path fill-rule="evenodd" clip-rule="evenodd" d="M2.14112 9.90632C2.28705 9.76039 2.52364 9.76039 2.66956 9.90632L6.09358 13.3303C6.2395 13.4763 6.2395 13.7128 6.09358 13.8588C5.94765 14.0047 5.71106 14.0047 5.56513 13.8588L2.14112 10.4348C1.9952 10.2888 1.9952 10.0522 2.14112 9.90632Z" fill="#313131"/>
</g>
<defs>
<clipPath id="clip0_11_35">
<rect width="16" height="16" fill="white"/>
</clipPath>
</defs>
</svg>
