<svg width="82" height="49" viewBox="0 0 82 49" fill="none" xmlns="http://www.w3.org/2000/svg">
<rect width="81.2358" height="49" rx="5" fill="#6E6666" fill-opacity="0.2"/>
<path fill-rule="evenodd" clip-rule="evenodd" d="M26.2124 23.7262C26.2124 23.1613 26.7807 22.7034 27.4817 22.7034H55.407C56.108 22.7034 56.6763 23.1613 56.6763 23.7262C56.6763 24.2911 56.108 24.749 55.407 24.749H27.4817C26.7807 24.749 26.2124 24.2911 26.2124 23.7262Z" fill="white"/>
<path fill-rule="evenodd" clip-rule="evenodd" d="M41.4441 11.4514C42.1451 11.4514 42.7134 11.9094 42.7134 12.4743V34.9771C42.7134 35.5421 42.1451 36 41.4441 36C40.7431 36 40.1748 35.5421 40.1748 34.9771V12.4743C40.1748 11.9094 40.7431 11.4514 41.4441 11.4514Z" fill="white"/>
</svg>
