<svg width="24" height="24" viewBox="0 0 24 24" fill="none" xmlns="http://www.w3.org/2000/svg">
<g clip-path="url(#clip0_1_966)">
<path d="M12 16.6021C9.46257 16.6021 7.39783 14.5374 7.39783 11.9999C7.39783 9.46244 9.46257 7.39771 12 7.39771C14.5375 7.39771 16.6022 9.46244 16.6022 11.9999C16.6022 14.5374 14.5375 16.6021 12 16.6021ZM12 8.42042C10.0262 8.42042 8.42054 10.0261 8.42054 11.9999C8.42054 13.9737 10.0262 15.5794 12 15.5794C13.9739 15.5794 15.5795 13.9737 15.5795 11.9999C15.5795 10.0261 13.9739 8.42042 12 8.42042Z" fill="#241E17"/>
<path d="M9.54419 20.9998C9.42488 20.9998 9.30556 20.9817 9.18965 20.9464C8.66353 20.7805 8.14876 20.568 7.66127 20.3124C7.3215 20.1339 7.08742 19.8021 7.03401 19.4226L6.77606 17.6158C6.70901 17.5533 6.64197 17.4885 6.57606 17.4226C6.51129 17.3579 6.44652 17.2908 6.38288 17.2226L4.57496 16.9647C4.19656 16.9113 3.86361 16.6772 3.68634 16.3374C3.43066 15.8488 3.21816 15.334 3.05339 14.809C2.93976 14.4431 3.00907 14.042 3.23862 13.7375L4.33405 12.2773C4.33064 12.1852 4.32951 12.092 4.32951 12C4.32951 11.9068 4.33064 11.8148 4.33405 11.7227L3.23862 10.2614C3.00907 9.95571 2.93976 9.55458 3.05339 9.18981C3.21816 8.66368 3.4318 8.14892 3.68747 7.66143C3.86588 7.32166 4.19769 7.08758 4.57723 7.03417L6.38402 6.77622C6.44765 6.70804 6.51129 6.64213 6.5772 6.57622C6.64311 6.51031 6.70901 6.44668 6.77719 6.38304L7.03514 4.57512C7.08855 4.19671 7.32378 3.86377 7.66241 3.6865C8.15217 3.43082 8.6658 3.21832 9.19079 3.05355C9.55669 2.93992 9.95782 3.00923 10.2624 3.23878L11.7226 4.33308C11.9067 4.32626 12.093 4.32626 12.2771 4.33308L13.7384 3.23764C14.0441 3.0081 14.4452 2.93878 14.81 3.05242C15.3361 3.21719 15.8498 3.43082 16.3384 3.6865C16.6782 3.8649 16.9123 4.19671 16.9657 4.57625L17.2236 6.38304C17.2907 6.44554 17.3577 6.51031 17.4236 6.57622C17.4884 6.64213 17.5532 6.70804 17.6168 6.77622L19.4247 7.03417C19.8031 7.08758 20.1361 7.32166 20.3133 7.66143C20.569 8.15006 20.7815 8.66482 20.9463 9.18981C21.0599 9.55572 20.9906 9.95685 20.7611 10.2614L19.6656 11.7216C19.669 11.8136 19.6702 11.9068 19.6702 11.9989C19.6702 12.0909 19.6679 12.1841 19.6656 12.2761L20.7611 13.7375C20.9906 14.0431 21.0599 14.4443 20.9463 14.809C20.7815 15.3352 20.5679 15.8499 20.3122 16.3374C20.1338 16.6772 19.802 16.9113 19.4224 16.9647L17.6156 17.2226C17.552 17.2908 17.4884 17.3567 17.4225 17.4226C17.3566 17.4885 17.2907 17.5522 17.2225 17.6158L16.9645 19.4237C16.9111 19.8021 16.6759 20.1351 16.3373 20.3124C15.8486 20.568 15.3339 20.7805 14.8089 20.9453C14.443 21.0589 14.0418 20.9896 13.7362 20.7601L12.276 19.6658C12.0907 19.6726 11.9055 19.6726 11.7214 19.6658L10.2612 20.7612C10.0533 20.918 9.79987 20.9998 9.54419 20.9998ZM9.54533 4.02285C9.52828 4.02285 9.51124 4.02513 9.49533 4.03081C9.02829 4.1774 8.57148 4.36603 8.13626 4.5933C8.08854 4.6183 8.05558 4.66603 8.04763 4.72057L7.76354 6.71145C7.7465 6.8319 7.68741 6.94099 7.5965 7.02167C7.4965 7.1103 7.3965 7.20462 7.30105 7.30007C7.2056 7.39552 7.11128 7.49552 7.02264 7.59552C6.94196 7.68643 6.83287 7.74552 6.71242 7.76256L4.72268 8.04665C4.66814 8.0546 4.62041 8.08756 4.59541 8.13642C4.36814 8.56937 4.17951 9.02732 4.03179 9.49549C4.01588 9.54663 4.0261 9.60458 4.05906 9.64776L5.26586 11.2568C5.33858 11.3534 5.37494 11.4739 5.36699 11.5943C5.35676 11.7273 5.35222 11.8636 5.35222 12C5.35222 12.1352 5.35676 12.2716 5.36472 12.4057C5.37154 12.5261 5.33631 12.6466 5.26358 12.7432L4.05792 14.3522C4.02497 14.3965 4.01474 14.4534 4.03065 14.5056C4.17724 14.9727 4.36587 15.4306 4.59314 15.8647C4.61814 15.9124 4.66587 15.9454 4.71927 15.9533L6.71015 16.2374C6.8306 16.2545 6.93969 16.3136 7.02037 16.4045C7.11014 16.5056 7.20332 16.6045 7.29878 16.701C7.39537 16.7976 7.49423 16.8908 7.59423 16.9795C7.68513 17.0601 7.74422 17.1704 7.76127 17.2897L8.04535 19.2794C8.05331 19.334 8.08626 19.3817 8.13513 19.4067C8.56807 19.634 9.02602 19.8237 9.49419 19.9703C9.54533 19.9862 9.60328 19.976 9.64646 19.943L11.2555 18.7362C11.3521 18.6635 11.4714 18.6272 11.593 18.6351C11.8601 18.651 12.1373 18.651 12.4055 18.6351C12.5271 18.6283 12.6464 18.6635 12.743 18.7362L14.3509 19.9419C14.3952 19.9749 14.4521 19.9851 14.5043 19.9692C14.9714 19.8226 15.4282 19.634 15.8634 19.4067C15.9111 19.3817 15.9441 19.334 15.952 19.2794L16.2361 17.2885C16.2532 17.1681 16.3123 17.059 16.4032 16.9783C16.5032 16.8897 16.6032 16.7954 16.6986 16.6999C16.7941 16.6045 16.8884 16.5045 16.977 16.4045C17.0577 16.3136 17.1668 16.2545 17.2872 16.2374L19.277 15.9533C19.3315 15.9454 19.3793 15.9124 19.4043 15.8636C19.6315 15.4306 19.8202 14.9727 19.9679 14.5045C19.9838 14.4534 19.9736 14.3954 19.9406 14.3522L18.7338 12.7432C18.6611 12.6466 18.6247 12.5273 18.6327 12.4057C18.6406 12.2716 18.6452 12.1352 18.6452 11.9989C18.6452 11.8636 18.6406 11.7261 18.6327 11.5932C18.6259 11.4727 18.6611 11.3523 18.7338 11.2557L19.9429 9.64776C19.9758 9.60344 19.9861 9.54662 19.9702 9.49435C19.8236 9.02732 19.6349 8.56937 19.4077 8.13529C19.3827 8.08756 19.3349 8.0546 19.2815 8.04665L17.2907 7.76256C17.1702 7.74552 17.0611 7.68643 16.9804 7.59552C16.8918 7.49552 16.7975 7.39552 16.702 7.30007C16.6054 7.20348 16.5066 7.1103 16.4066 7.02167C16.3157 6.94099 16.2566 6.83076 16.2395 6.71145L15.9555 4.72171C15.9475 4.66716 15.9145 4.61944 15.8657 4.59444C15.4327 4.36717 14.9748 4.1774 14.5066 4.03081C14.4555 4.0149 14.3975 4.02513 14.3543 4.05808L12.7453 5.26488C12.6487 5.3376 12.5282 5.37397 12.4078 5.36601C12.1385 5.3501 11.8612 5.3501 11.5953 5.36601C11.4737 5.37283 11.3544 5.3376 11.2578 5.26488L9.6476 4.05808C9.61806 4.03422 9.58169 4.02285 9.54533 4.02285Z" fill="#241E17"/>
</g>
<defs>
<clipPath id="clip0_1_966">
<rect width="24" height="24" fill="white"/>
</clipPath>
</defs>
</svg>
