<svg width="24" height="24" viewBox="0 0 24 24" fill="none" xmlns="http://www.w3.org/2000/svg">
<path fill-rule="evenodd" clip-rule="evenodd" d="M11.2375 1.92507C11.4617 1.77036 11.7276 1.6875 12 1.6875C12.2723 1.6875 12.5383 1.77036 12.7625 1.92507C12.9853 2.07885 13.1564 2.2964 13.2533 2.54911L15.3187 7.75026C15.3342 7.79031 15.3608 7.82512 15.3954 7.85063C15.4296 7.87589 15.4702 7.89101 15.5126 7.89428C15.513 7.89431 15.5135 7.89434 15.5139 7.89437L21.0475 8.25349C22.297 8.33459 22.7444 9.91009 21.8171 10.6819L17.5797 14.2087C17.5794 14.209 17.5791 14.2093 17.5787 14.2096C17.542 14.2408 17.5148 14.2817 17.5001 14.3277C17.4853 14.374 17.4838 14.4236 17.496 14.4708L17.4963 14.4722L18.8624 19.8462C19.1563 21.002 17.9121 22.0307 16.8408 21.352L12.1125 18.3563L12.4136 17.8811L12.1114 18.3557C12.0781 18.3345 12.0395 18.3232 12 18.3232C11.9605 18.3232 11.9218 18.3345 11.8885 18.3557L7.49344 21.1402C6.3013 21.8955 4.907 20.7529 5.23669 19.456L6.50361 14.4722L6.50398 14.4708C6.51609 14.4236 6.51466 14.374 6.49984 14.3277C6.48515 14.2817 6.45791 14.2408 6.4212 14.2096L2.18285 10.6819C1.25552 9.9101 1.70293 8.33459 2.95248 8.25349L8.48734 7.89428C8.52973 7.89101 8.57035 7.87589 8.60456 7.85063C8.63912 7.82512 8.66572 7.79031 8.68126 7.75027L8.68284 7.74622L10.7466 2.54911C10.8436 2.29639 11.0147 2.07885 11.2375 1.92507ZM12.7156 17.4067C12.7155 17.4066 12.7157 17.4067 12.7156 17.4067L17.4429 20.4017C17.5263 20.4546 17.6098 20.4468 17.6834 20.3909C17.7587 20.3338 17.8018 20.2399 17.7721 20.1233L16.4064 14.7508C16.4063 14.7504 16.4062 14.7501 16.4061 14.7497C16.3416 14.4978 16.3493 14.2328 16.4285 13.9851C16.5078 13.7371 16.6555 13.5164 16.8547 13.3486L16.8573 13.3463L21.0974 9.81725C21.1808 9.74786 21.2067 9.64685 21.1744 9.54277C21.1423 9.43958 21.0696 9.38229 20.9746 9.37613L15.4337 9.01652C15.1783 8.99827 14.9333 8.90782 14.7272 8.75572C14.5218 8.6041 14.3636 8.39744 14.2708 8.15966C14.2705 8.1589 14.2702 8.15814 14.2699 8.15737L12.2032 2.9528C12.1875 2.91156 12.1598 2.87603 12.1235 2.85097C12.0871 2.82592 12.0441 2.8125 12 2.8125C11.9559 2.8125 11.9128 2.82592 11.8765 2.85097C11.8402 2.87603 11.8124 2.91153 11.7967 2.95277L11.7936 2.96085L9.72909 8.15977C9.63629 8.3975 9.47807 8.60413 9.27272 8.75572C9.06669 8.90782 8.82168 8.99826 8.56623 9.01651L8.56258 9.01677L3.02534 9.37613C2.93037 9.38229 2.85767 9.43958 2.82558 9.54277C2.79321 9.64685 2.81918 9.74786 2.90253 9.81725L7.14259 13.3463L7.14528 13.3486C7.3444 13.5164 7.49211 13.7371 7.57141 13.9851C7.65062 14.2329 7.65837 14.4979 7.59379 14.7499C7.59372 14.7502 7.59364 14.7505 7.59356 14.7508L6.32701 19.7331C6.22626 20.1294 6.63294 20.3536 6.89135 20.1899L11.2844 17.4067C11.2843 17.4067 11.2845 17.4066 11.2844 17.4067C11.4982 17.2706 11.7466 17.1982 12 17.1982C12.2534 17.1982 12.5018 17.2706 12.7156 17.4067Z" fill="#241E17"/>
</svg>
