<svg width="24" height="24" viewBox="0 0 24 24" fill="none" xmlns="http://www.w3.org/2000/svg">
<path d="M22.4218 9.13233C22.3282 8.83834 22.1481 8.57941 21.9051 8.38931C21.6621 8.1992 21.3674 8.08676 21.0595 8.06665L15.4916 7.677L13.4262 2.47607C13.3144 2.18854 13.1184 1.94148 12.8638 1.76727C12.6092 1.59305 12.3079 1.49981 11.9994 1.49976H11.998C11.69 1.50031 11.3893 1.59379 11.1353 1.76798C10.8812 1.94216 10.6857 2.18895 10.5742 2.47607L8.47796 7.70703L2.94085 8.06665C2.63297 8.08676 2.3383 8.1992 2.09528 8.3893C1.85226 8.57941 1.67219 8.83834 1.57855 9.13233C1.47976 9.43048 1.47304 9.75148 1.55926 10.0535C1.64548 10.3555 1.82064 10.6246 2.06194 10.8257L6.32171 14.4263L5.05462 19.4104C4.96728 19.7461 4.98334 20.1004 5.1007 20.4269C5.21805 20.7533 5.43123 21.0367 5.71233 21.24C5.98373 21.4374 6.30828 21.5486 6.64374 21.5591C6.9792 21.5695 7.31003 21.4788 7.59319 21.2986L11.9877 18.5147C11.9936 18.5103 11.9994 18.5073 12.0126 18.5147L16.7411 21.5103C16.9978 21.6743 17.2981 21.757 17.6026 21.7476C17.907 21.7382 18.2016 21.6371 18.4477 21.4575C18.7024 21.2734 18.8956 21.0167 19.002 20.7209C19.1083 20.4252 19.1229 20.1042 19.0439 19.8001L17.6977 14.3552L21.9384 10.8257C22.1797 10.6246 22.3549 10.3555 22.4411 10.0535C22.5273 9.75148 22.5206 9.43048 22.4218 9.13233Z" fill="#FFD80D"/>
</svg>
