<svg width="28" height="29" viewBox="0 0 28 29" fill="none" xmlns="http://www.w3.org/2000/svg">
<ellipse cx="13.5909" cy="14.5" rx="13.5909" ry="14.5" fill="#53B9EE"/>
<path d="M19.0003 10.5735L16.2171 7.56547C16.1246 7.46545 16.0147 7.38611 15.8938 7.33199C15.7729 7.27786 15.6433 7.25 15.5124 7.25C15.3816 7.25 15.252 7.27786 15.1311 7.33199C15.0102 7.38611 14.9003 7.46545 14.8078 7.56547L13.1671 9.33862L7.33368 15.643C7.24084 15.7428 7.16723 15.8615 7.11712 15.9922C7.06701 16.123 7.04139 16.2631 7.04175 16.4046V19.4126C7.04205 19.6982 7.14714 19.9719 7.33397 20.1738C7.52079 20.3757 7.77409 20.4893 8.0383 20.4896H10.8216C10.9525 20.49 11.0822 20.4623 11.2031 20.4082C11.3241 20.354 11.4339 20.2745 11.5262 20.1742L19.0004 12.0966C19.187 11.8944 19.2918 11.6205 19.2917 11.335C19.2917 11.0495 19.1869 10.7756 19.0003 10.5735ZM17.0072 12.7275L14.224 9.7195L15.5124 8.32702L18.2957 11.335L17.0072 12.7275Z" fill="white"/>
</svg>
