<svg width="27" height="23" viewBox="0 0 27 23" fill="none" xmlns="http://www.w3.org/2000/svg">
<path d="M23.25 3H19.7844L18.0813 0.445312C17.99 0.30833 17.8663 0.196011 17.7211 0.118327C17.576 0.0406434 17.4139 -1.85938e-06 17.2493 0H9.24927C9.08464 -1.74923e-06 8.92256 0.0406434 8.77741 0.118327C8.63227 0.196011 8.50855 0.30833 8.41724 0.445312L6.71411 3H3.25C2.45463 3.00091 1.6921 3.31727 1.12968 3.87968C0.567272 4.4421 0.25091 5.20463 0.25 6V20C0.25091 20.7954 0.567272 21.5579 1.12968 22.1203C1.6921 22.6827 2.45463 22.9991 3.25 23H23.25C24.0454 22.9991 24.8079 22.6827 25.3703 22.1203C25.9327 21.5579 26.2491 20.7954 26.25 20V6C26.2491 5.20463 25.9327 4.4421 25.3703 3.87968C24.8079 3.31727 24.0454 3.00091 23.25 3ZM17.75 12.5C17.75 13.39 17.4861 14.26 16.9916 15.0001C16.4971 15.7401 15.7943 16.3169 14.9721 16.6575C14.1498 16.9981 13.245 17.0872 12.3721 16.9135C11.4992 16.7399 10.6974 16.3113 10.068 15.682C9.43868 15.0526 9.0101 14.2508 8.83647 13.3779C8.66283 12.505 8.75195 11.6002 9.09254 10.7779C9.43314 9.95566 10.0099 9.25285 10.7499 8.75839C11.49 8.26392 12.36 8 13.25 8C14.4431 8.00134 15.5869 8.47587 16.4305 9.3195C17.2741 10.1631 17.7487 11.3069 17.75 12.5Z" fill="#A4A7AF"/>
</svg>
