<svg width="335" height="335" viewBox="0 0 335 335" fill="none" xmlns="http://www.w3.org/2000/svg">
<rect x="0.5" y="0.5" width="334" height="334" rx="7.5" fill="#FCFCFC" stroke="#E1E3E9"/>
<path fill-rule="evenodd" clip-rule="evenodd" d="M133.151 202.211L129.487 202.725C127.519 203.002 125.698 201.63 125.421 199.662L115.401 128.362C115.124 126.393 116.496 124.573 118.465 124.296L188.873 114.401C190.842 114.124 192.662 115.496 192.939 117.465C192.939 117.465 193.58 122.024 193.8 123.592" fill="white"/>
<path fill-rule="evenodd" clip-rule="evenodd" d="M135.425 198.241L132.098 198.714C130.311 198.968 128.66 197.725 128.411 195.937L119.416 131.205C119.167 129.418 120.415 127.762 122.203 127.508L186.137 118.421C187.925 118.167 189.575 119.41 189.824 121.198L190.597 126.76C190.639 127.061 193.4 147.041 198.882 186.699C199.157 188.69 197.784 190.53 195.815 190.809C195.794 190.812 195.773 190.815 195.751 190.817L135.425 198.241Z" fill="#F5F6F8"/>
<path d="M133.151 202.211L129.487 202.725C127.519 203.002 125.698 201.63 125.421 199.662L115.401 128.362C115.124 126.393 116.496 124.573 118.465 124.296L188.873 114.401C190.842 114.124 192.662 115.496 192.939 117.465C192.939 117.465 193.58 122.024 193.8 123.592" stroke="#D7DAE2" stroke-width="2.25" stroke-linecap="round"/>
<path d="M194.55 127.742L195 130.55" stroke="#D7DAE2" stroke-width="2.25" stroke-linecap="round"/>
<path d="M148.06 129.237L218.77 136.669C220.13 136.812 221.116 138.029 220.973 139.389L213.447 210.994C213.304 212.354 212.086 213.34 210.727 213.197L140.016 205.765C138.657 205.622 137.671 204.405 137.813 203.045L145.339 131.44C145.482 130.08 146.7 129.094 148.06 129.237Z" fill="white" stroke="#D7DAE2" stroke-width="2.25"/>
<path fill-rule="evenodd" clip-rule="evenodd" d="M151.524 139.329C151.68 137.846 153.008 136.77 154.491 136.926L210.881 142.853C212.364 143.009 213.439 144.337 213.283 145.82L208.297 193.259C208.142 194.742 206.813 195.818 205.33 195.662L148.941 189.735C147.458 189.579 146.382 188.251 146.538 186.768L151.524 139.329Z" fill="white"/>
<path fill-rule="evenodd" clip-rule="evenodd" d="M154.267 175.89L163.084 169.943C164.555 168.951 166.528 169.178 167.735 170.477L174.191 177.428C174.514 177.775 175.049 177.813 175.417 177.515L189.223 166.328C190.886 164.981 193.351 165.373 194.513 167.17L203.496 181.064L204.786 183.217L204.168 190.529C204.125 191.034 203.675 191.404 203.172 191.348L151.905 185.652C151.418 185.598 151.063 185.163 151.108 184.675L151.788 177.296L154.267 175.89Z" fill="#F5F6F8"/>
<path d="M154.374 138.045L210.763 143.972C211.628 144.063 212.256 144.838 212.165 145.703L207.179 193.141C207.088 194.007 206.313 194.634 205.448 194.543L149.058 188.616C148.193 188.526 147.566 187.751 147.657 186.885L152.643 139.447C152.733 138.582 153.508 137.954 154.374 138.045Z" stroke="#D7DAE2" stroke-width="2.25"/>
<circle cx="165.329" cy="154.354" r="5.4" transform="rotate(6 165.329 154.354)" fill="#F3F7FF" stroke="#D7DAE2" stroke-width="2.25"/>
<path d="M152.456 177.282C155.999 174.836 163.084 169.943 163.084 169.943C164.555 168.951 166.528 169.178 167.735 170.477L174.191 177.428C174.514 177.775 175.049 177.813 175.417 177.515L189.223 166.328C190.768 165.076 193.035 165.314 194.287 166.859C194.368 166.959 194.443 167.063 194.513 167.17C194.513 167.17 202.584 179.978 204.47 182.971" stroke="#D7DAE2" stroke-width="2.25" stroke-linecap="round"/>
</svg>
