<svg width="27" height="22" viewBox="0 0 27 22" fill="none" xmlns="http://www.w3.org/2000/svg">
<path d="M18.7501 7.50002C18.7501 7.89789 18.592 8.27986 18.3106 8.56116C18.0292 8.84246 17.6477 9.00048 17.2498 9.00045C16.8519 9.00042 16.4704 8.84235 16.1891 8.56101C15.9077 8.27967 15.7497 7.8981 15.7497 7.50023C15.7497 7.10237 15.9077 6.7208 16.1891 6.43946C16.4704 6.15811 16.8519 6.00004 17.2498 6.00002C17.6477 5.99999 18.0292 6.158 18.3106 6.43931C18.592 6.72061 18.7501 7.10216 18.7501 7.50002ZM26.75 2V20C26.7494 20.5302 26.5385 21.0386 26.1635 21.4135C25.7886 21.7885 25.2802 21.9994 24.75 22H2.75C2.21975 21.9994 1.7114 21.7885 1.33646 21.4135C0.961516 21.0386 0.750607 20.5302 0.75 20V2C0.750607 1.46975 0.961516 0.961398 1.33646 0.586457C1.7114 0.211516 2.21975 0.000607083 2.75 0H24.75C25.2802 0.000607083 25.7886 0.211516 26.1635 0.586457C26.5385 0.961398 26.7494 1.46975 26.75 2ZM24.751 15.5867L24.75 2H2.75V13.5857L7.33582 9.00002C7.7112 8.62551 8.2198 8.41518 8.75006 8.41518C9.28032 8.41518 9.78892 8.62551 10.1643 9.00002L15.7501 14.5859L18.3358 12C18.7112 11.6255 19.2198 11.4152 19.7501 11.4152C20.2803 11.4152 20.7889 11.6255 21.1643 12L24.751 15.5867Z" fill="#A4A7AF"/>
</svg>
