<svg width="16" height="16" viewBox="0 0 16 16" fill="none" xmlns="http://www.w3.org/2000/svg">
<path fill-rule="evenodd" clip-rule="evenodd" d="M2.49976 3.125L13.4998 3.125C13.7069 3.125 13.8748 3.29289 13.8748 3.5C13.8748 3.70711 13.7069 3.875 13.4998 3.875L2.49976 3.875C2.29265 3.875 2.12476 3.70711 2.12476 3.5C2.12476 3.2929 2.29265 3.125 2.49976 3.125Z" fill="#313131"/>
<path fill-rule="evenodd" clip-rule="evenodd" d="M6.5 6.125C6.70711 6.125 6.875 6.29289 6.875 6.5V10.5C6.875 10.7071 6.70711 10.875 6.5 10.875C6.29289 10.875 6.125 10.7071 6.125 10.5V6.5C6.125 6.29289 6.29289 6.125 6.5 6.125Z" fill="#313131"/>
<path fill-rule="evenodd" clip-rule="evenodd" d="M9.5 6.125C9.70711 6.125 9.875 6.29289 9.875 6.5V10.5C9.875 10.7071 9.70711 10.875 9.5 10.875C9.29289 10.875 9.125 10.7071 9.125 10.5V6.5C9.125 6.29289 9.29289 6.125 9.5 6.125Z" fill="#313131"/>
<path fill-rule="evenodd" clip-rule="evenodd" d="M3.5 3.125C3.70711 3.125 3.875 3.29289 3.875 3.5V13C3.875 13.0332 3.88817 13.0649 3.91161 13.0884C3.93505 13.1118 3.96685 13.125 4 13.125H12C12.0332 13.125 12.0649 13.1118 12.0884 13.0884C12.1118 13.0649 12.125 13.0332 12.125 13V3.5C12.125 3.29289 12.2929 3.125 12.5 3.125C12.7071 3.125 12.875 3.29289 12.875 3.5V13C12.875 13.2321 12.7828 13.4546 12.6187 13.6187C12.4546 13.7828 12.2321 13.875 12 13.875H4C3.76794 13.875 3.54538 13.7828 3.38128 13.6187C3.21719 13.4546 3.125 13.2321 3.125 13V3.5C3.125 3.29289 3.29289 3.125 3.5 3.125Z" fill="#313131"/>
<path fill-rule="evenodd" clip-rule="evenodd" d="M5.52773 1.52773C5.78559 1.26987 6.13533 1.125 6.5 1.125H9.5C9.86467 1.125 10.2144 1.26987 10.4723 1.52773C10.7301 1.78559 10.875 2.13533 10.875 2.5V3.5C10.875 3.70711 10.7071 3.875 10.5 3.875C10.2929 3.875 10.125 3.70711 10.125 3.5V2.5C10.125 2.33424 10.0592 2.17527 9.94194 2.05806C9.82473 1.94085 9.66576 1.875 9.5 1.875H6.5C6.33424 1.875 6.17527 1.94085 6.05806 2.05806C5.94085 2.17527 5.875 2.33424 5.875 2.5V3.5C5.875 3.70711 5.70711 3.875 5.5 3.875C5.29289 3.875 5.125 3.70711 5.125 3.5V2.5C5.125 2.13533 5.26987 1.78559 5.52773 1.52773Z" fill="#313131"/>
</svg>
