<svg width="28" height="23" viewBox="0 0 28 23" fill="none" xmlns="http://www.w3.org/2000/svg">
<ellipse cx="13.5909" cy="11.5" rx="13.5909" ry="11.5" fill="#53B9EE"/>
<path d="M19.0003 8.38586L16.2171 6.0002C16.1246 5.92088 16.0147 5.85795 15.8938 5.81502C15.7729 5.7721 15.6433 5.75 15.5124 5.75C15.3816 5.75 15.252 5.7721 15.1311 5.81502C15.0102 5.85795 14.9003 5.92088 14.8078 6.0002L13.1671 7.40649L7.33368 12.4066C7.24084 12.4857 7.16723 12.5798 7.11712 12.6835C7.06701 12.7872 7.04139 12.8983 7.04175 13.0106V15.3962C7.04205 15.6227 7.14714 15.8398 7.33397 15.9999C7.52079 16.1601 7.77409 16.2502 8.0383 16.2504H10.8216C10.9525 16.2507 11.0822 16.2288 11.2031 16.1858C11.3241 16.1429 11.4339 16.0798 11.5262 16.0002L19.0004 9.59383C19.187 9.43351 19.2918 9.2163 19.2917 8.98984C19.2917 8.76338 19.1869 8.54617 19.0003 8.38586ZM17.0072 10.0942L14.224 7.70857L15.5124 6.60418L18.2957 8.98984L17.0072 10.0942Z" fill="white"/>
</svg>
