<svg width="30" height="30" viewBox="0 0 30 30" fill="none" xmlns="http://www.w3.org/2000/svg">
<path fill-rule="evenodd" clip-rule="evenodd" d="M15 4.78149C14.9414 4.78149 14.885 4.80342 14.8418 4.84294L14.8401 4.84452L5.47161 13.3581C5.44703 13.3821 5.42726 13.4107 5.41338 13.4421C5.39941 13.4739 5.39169 13.5079 5.39062 13.5426V24.3749C5.39062 24.4371 5.41532 24.4967 5.45927 24.5407C5.50322 24.5846 5.56284 24.6093 5.625 24.6093H11.25C11.3122 24.6093 11.3718 24.5846 11.4157 24.5407C11.4597 24.4967 11.4844 24.4371 11.4844 24.3749V18.7499C11.4844 18.3148 11.6572 17.8975 11.9649 17.5898C12.2726 17.2822 12.6899 17.1093 13.125 17.1093H16.875C17.3101 17.1093 17.7274 17.2822 18.0351 17.5898C18.3428 17.8975 18.5156 18.3148 18.5156 18.7499V24.3749C18.5156 24.4371 18.5403 24.4967 18.5843 24.5407C18.6282 24.5846 18.6878 24.6093 18.75 24.6093H24.375C24.4372 24.6093 24.4968 24.5846 24.5407 24.5407C24.5847 24.4967 24.6094 24.4371 24.6094 24.3749V13.5426C24.6083 13.508 24.6006 13.4739 24.5866 13.4421C24.5727 13.4107 24.553 13.3821 24.5284 13.3581L15.1599 4.84452L15.1582 4.84294C15.115 4.80342 15.0586 4.78149 15 4.78149ZM13.8935 3.80452C14.1959 3.52837 14.5905 3.37524 15 3.37524C15.4095 3.37524 15.8041 3.52837 16.1065 3.80451C16.1068 3.80481 16.1071 3.8051 16.1074 3.80539L25.4807 12.3233L25.4906 12.3325C25.6531 12.486 25.7833 12.6705 25.8735 12.8751C25.9636 13.0796 26.0119 13.3002 26.0155 13.5237L26.0157 13.5351L26.0156 24.3749C26.0156 24.8101 25.8428 25.2274 25.5351 25.535C25.2274 25.8427 24.8101 26.0156 24.375 26.0156H18.75C18.3149 26.0156 17.8976 25.8427 17.5899 25.535C17.2822 25.2274 17.1094 24.8101 17.1094 24.3749V18.7499C17.1094 18.6878 17.0847 18.6282 17.0407 18.5842C16.9968 18.5403 16.9372 18.5156 16.875 18.5156H13.125C13.0628 18.5156 13.0032 18.5403 12.9593 18.5842C12.9153 18.6282 12.8906 18.6878 12.8906 18.7499V24.3749C12.8906 24.8101 12.7178 25.2274 12.4101 25.535C12.1024 25.8427 11.6851 26.0156 11.25 26.0156H5.625C5.18988 26.0156 4.77258 25.8427 4.4649 25.535C4.15723 25.2274 3.98438 24.8101 3.98438 24.3749V13.5237C3.98799 13.3002 4.03639 13.0796 4.12654 12.8751C4.2167 12.6705 4.34688 12.486 4.50941 12.3325L4.51931 12.3233L13.8926 3.80539C13.8929 3.8051 13.8932 3.80481 13.8935 3.80452Z" fill="#CDD1DB"/>
</svg>
